 http://www.imdb.com/title/tt1625887/

Working Girls 2010


Directed by 	Jose Javier Reyes
Starring :
	
Eugene Domingo
Jennylyn Mercado
Iza Calzado
Cristine Reyes
Bianca King
Eula Valdez
and Ruffa Gutierrez

Distributed by 	VIVA Films | GMA Films
Country  :Philippines
Language :English, Tagalog, Filipino



Synopsis

Domingo plays Paula (the daughter-in-law of Pareño’s original character) who has her own business of fake bags available on the net. She’s married but is fighting the urge to have an affair with her delivery driver. Gutierrez is Marilou, a beauty queen and a recent widow who’s now in a fierce battle with her late hubby’s relatives over inheritance. Cristine Reyes is Wendy, a promo girl who’s always on the lookout for wealthy customers and blind to the sincere affections of a man of simple means. Mercado plays Ada, the illegimate daughter of Sabel (played by Locsin). Ada is your typical career-driven woman except that she is also a single mom to a young boy which she barely has time to take care of; thus she enlists the help of her mom. Calzado is Tere, a nurse who’s nursing a broken heart—how’s that for irony—who now faces the dilemma of taking care of the girlfriend of the man responsible for her heartache. King plays a spoiled brat who gets a bitter taste of real life when she begins work as a junior PA at a TV network. Also in the cast is Cherie Gil, Mylene Dizon and Eula Valdez.




General
Complete name                    : working-girls-2010-gangmie.avi
Format                           : AVI
Format/Info                      : Audio Video Interleave
File size                        : 804 MiB
Duration                         : 1h 49mn
Overall bit rate                 : 1 023 Kbps
Writing application              : VirtualDubMod 1.5.10.2 (build 2542/release)
Writing library                  : VirtualDubMod build 2542/release
Copyright                        : gangmie

Video
ID                               : 0
Format                           : MPEG-4 Visual
Format profile                   : Advanced Simple@L5
Format settings, BVOP            : Yes
Format settings, QPel            : No
Format settings, GMC             : No warppoints
Format settings, Matrix          : Default (MPEG)
Codec ID                         : XVID
Codec ID/Hint                    : XviD
Duration                         : 1h 49mn
Bit rate                         : 900 Kbps
Width                            : 640 pixels
Height                           : 352 pixels
Display aspect ratio             : 16:9
Frame rate                       : 23.976 fps
Resolution                       : 8 bits
Colorimetry                      : 4:2:0
Scan type                        : Progressive
Bits/(Pixel*Frame)               : 0.167
Stream size                      : 707 MiB (88%)
Writing library                  : XviD 1.2.1 (UTC 2008-12-04)

Audio
ID                               : 1
Format                           : MPEG Audio
Format version                   : Version 1
Format profile                   : Layer 3
Format_Settings_Mode             : Joint stereo
Format_Settings_ModeExtension    : MS Stereo
Codec ID                         : 55
Codec ID/Hint                    : MP3
Duration                         : 1h 49mn
Bit rate mode                    : Variable
Bit rate                         : 110 Kbps
Nominal bit rate                 : 128 Kbps
Channel(s)                       : 2 channels
Sampling rate                    : 48.0 KHz
Stream size                      : 86.6 MiB (11%)
Alignment                        : Aligned on interleaves
Interleave, duration             : 24 ms (0.58 video frame)
Interleave, preload duration     : 546 ms
Writing library                  : LAME3.98r
Encoding settings                : -m j -V 4 -q 2 -lowpass 17 --abr 128

screenshot 
http://img686.imageshack.us/img686/7020/vlcsnap2010071122h27m10.png 
http://img694.imageshack.us/img694/4172/vlcsnap2010071122h27m35.png


PLEASE SEED PO